<svg width="116" height="50" viewBox="0 0 116 50" fill="none" xmlns="http://www.w3.org/2000/svg">
<path d="M14.7541 -1.90735e-06V20.352L11.0421 16.64H28.8981V24H6.49813V-1.90735e-06H14.7541ZM38.6216 12.992C38.6216 13.8667 38.771 14.624 39.0696 15.264C39.3896 15.8827 39.8696 16.3627 40.5096 16.704C41.1496 17.0453 41.971 17.216 42.9736 17.216C43.9976 17.216 44.8296 17.056 45.4696 16.736C46.1096 16.3947 46.579 15.904 46.8776 15.264C47.1763 14.624 47.3256 13.8667 47.3256 12.992V-1.90735e-06H55.5816V13.44C55.5816 15.68 55.059 17.632 54.0136 19.296C52.9683 20.96 51.4963 22.2613 49.5976 23.2C47.7203 24.1173 45.5123 24.576 42.9736 24.576C40.4563 24.576 38.2483 24.1173 36.3496 23.2C34.4723 22.2613 33.0003 20.96 31.9336 19.296C30.8883 17.632 30.3656 15.68 30.3656 13.44V-1.90735e-06H38.6216V12.992ZM74.7451 14.08V8.992L86.9051 24H76.7611L69.5931 14.496H73.7531L66.5211 24H56.5051L68.7611 8.992V14.08L57.1131 -1.90735e-06H67.4491L73.9131 8.544H69.7531L76.0891 -1.90735e-06H86.2971L74.7451 14.08ZM109.781 9.152V14.848H91.7011V9.152H109.781ZM97.3651 12L95.8931 20.928L92.7571 17.472H110.965V24H87.7331L89.4931 12L87.7331 -1.90735e-06H110.805V6.528H92.7571L95.8931 3.072L97.3651 12ZM8.08475 44.968V38.408H24.4368V44.968H8.08475ZM21.9088 25L32.4368 49H23.6368L15.3488 28.648H17.4608L9.17275 49H0.37275L10.9008 25H21.9088ZM40.6685 37.992C40.6685 38.8667 40.8178 39.624 41.1165 40.264C41.4365 40.8827 41.9165 41.3627 42.5565 41.704C43.1965 42.0453 44.0178 42.216 45.0205 42.216C46.0445 42.216 46.8765 42.056 47.5165 41.736C48.1565 41.3947 48.6258 40.904 48.9245 40.264C49.2232 39.624 49.3725 38.8667 49.3725 37.992V25H57.6285V38.44C57.6285 40.68 57.1058 42.632 56.0605 44.296C55.0152 45.96 53.5432 47.2613 51.6445 48.2C49.7672 49.1173 47.5592 49.576 45.0205 49.576C42.5032 49.576 40.2952 49.1173 38.3965 48.2C36.5192 47.2613 35.0472 45.96 33.9805 44.296C32.9352 42.632 32.4125 40.68 32.4125 38.44V25H40.6685V37.992ZM68.562 28.552H76.818V49H68.562V28.552ZM59.922 25H85.458V32.36H59.922V25ZM100.929 49.576C98.0058 49.576 95.4458 49.0533 93.2485 48.008C91.0725 46.9627 89.3765 45.5013 88.1605 43.624C86.9445 41.7253 86.3365 39.5173 86.3365 37C86.3365 34.4827 86.9445 32.2853 88.1605 30.408C89.3765 28.5093 91.0725 27.0373 93.2485 25.992C95.4458 24.9467 98.0058 24.424 100.929 24.424C103.851 24.424 106.401 24.9467 108.577 25.992C110.774 27.0373 112.481 28.5093 113.697 30.408C114.913 32.2853 115.521 34.4827 115.521 37C115.521 39.5173 114.913 41.7253 113.697 43.624C112.481 45.5013 110.774 46.9627 108.577 48.008C106.401 49.0533 103.851 49.576 100.929 49.576ZM100.929 42.216C102.23 42.216 103.35 42.0133 104.289 41.608C105.227 41.1813 105.942 40.584 106.433 39.816C106.945 39.0267 107.201 38.088 107.201 37C107.201 35.912 106.945 34.984 106.433 34.216C105.942 33.4267 105.227 32.8293 104.289 32.424C103.35 31.9973 102.23 31.784 100.929 31.784C99.6272 31.784 98.5072 31.9973 97.5685 32.424C96.6298 32.8293 95.9045 33.4267 95.3925 34.216C94.9018 34.984 94.6565 35.912 94.6565 37C94.6565 38.088 94.9018 39.0267 95.3925 39.816C95.9045 40.584 96.6298 41.1813 97.5685 41.608C98.5072 42.0133 99.6272 42.216 100.929 42.216Z" fill="url(#paint0_linear_40_255)"/>
<defs>
<linearGradient id="paint0_linear_40_255" x1="-37.25" y1="-14.4375" x2="127.952" y2="36.5392" gradientUnits="userSpaceOnUse">
<stop stop-color="#B808F6"/>
<stop offset="1" stop-color="#FF7712"/>
</linearGradient>
</defs>
</svg>
